<?xml version="1.0" encoding="utf-8"?>
<!-- Svg Vector Icons : http://www.onlinewebfonts.com/icon -->
<!DOCTYPE svg PUBLIC "-//W3C//DTD SVG 1.1//EN" "http://www.w3.org/Graphics/SVG/1.1/DTD/svg11.dtd">
<svg version="1.1" xmlns="http://www.w3.org/2000/svg" xmlns:xlink="http://www.w3.org/1999/xlink" x="0px" y="0px" viewBox="0 0 256 256" enable-background="new 0 0 256 256" xml:space="preserve">
<metadata> Svg Vector Icons : http://www.onlinewebfonts.com/icon </metadata>
<g><g><g><path fill="#000000" d="M198.8,10H57.2C31.2,10,10,31.2,10,57.2v141.6c0,26,21.2,47.2,47.2,47.2h141.6c26,0,47.2-21.2,47.2-47.2V57.2C246,31.2,224.8,10,198.8,10z M189.6,110.1c6.4,3.8,9.7,7.9,7.3,9.2c-2.4,1.4-9.5-0.6-15.8-4.4c-6.4-3.7-19.3-2.2-28.8,3.3c-9.5,5.5-9.5,14.5,0,20c9.5,5.4,22.4,6.9,28.8,3.2c6.3-3.8,13.4-5.7,15.8-4.4c2.4,1.3-0.9,5.5-7.3,9.2c-6.4,3.7-5.3,10.4,2.4,14.8c7.7,4.5,13,9.7,11.8,11.8c-1.1,2-8.3,0-16-4.4c-7.7-4.5-14-2.1-14.1,5.2c-0.1,7.3-2,12.2-4.3,10.9c-2.2-1.3-4-8.3-4-15.7c0-7.4-7.5-17.7-16.6-23c-9.2-5.3-16.7-0.9-16.7,9.8c0,10.7,5.2,22.3,11.6,25.8c6.4,3.6,11.6,8.8,11.6,11.5c0,2.7-5.2,2-11.6-1.6c-6.4-3.7-11.6,0.5-11.6,9.3c0,8.8-1.8,16-4,16c-2.2,0-4.1-7.2-4.1-15.9c0-8.7-5.2-13-11.6-9.4c-6.4,3.6-11.6,4.3-11.7,1.6c0-2.7,5.2-7.8,11.6-11.4c6.4-3.6,11.7-15.3,11.7-25.9c0-10.7-7.5-15.1-16.7-9.8c-9.2,5.3-16.6,15.7-16.6,23c0.1,7.4-1.8,14.4-4,15.7c-2.2,1.3-4.2-3.6-4.3-10.9c-0.1-7.2-6.5-9.6-14.1-5.1c-7.7,4.4-14.9,6.4-16,4.4c-1.2-2,4.2-7.3,11.9-11.8c7.7-4.4,8.8-11.1,2.5-14.8c-6.3-3.8-9.5-7.9-7.2-9.2c2.3-1.3,9.4,0.6,15.7,4.4c6.2,3.7,19.1,2.3,28.7-3.2c9.5-5.5,9.5-14.5,0-20c-9.5-5.5-22.4-7-28.7-3.3c-6.3,3.8-13.4,5.7-15.7,4.4c-2.3-1.3,0.9-5.5,7.2-9.2c6.3-3.7,5.2-10.4-2.5-14.8c-7.7-4.4-13-9.7-11.9-11.7c1.1-2,8.3,0,16,4.4c7.7,4.4,14,2,14.1-5.3c0.1-7.3,2.1-12.3,4.3-10.9c2.3,1.3,4.1,8.4,4,15.8c-0.1,7.3,7.4,17.7,16.6,23c9.2,5.3,16.7,0.9,16.7-9.8c0-10.7-5.3-22.4-11.7-26c-6.4-3.6-11.6-8.7-11.6-11.4c0-2.6,5.3-1.9,11.7,1.7c6.4,3.5,11.6-0.8,11.6-9.6c0-8.8,1.9-16,4.1-16c2.2,0,4,7.2,4,16.2c0,8.9,5.2,13.1,11.6,9.5c6.4-3.7,11.6-4.5,11.6-1.7c0,2.7-5.2,7.9-11.6,11.4c-6.4,3.5-11.6,15.2-11.6,25.8c0,10.7,7.5,15.1,16.7,9.8c9.2-5.3,16.7-15.7,16.6-23c0-7.4,1.8-14.4,4-15.8c2.2-1.3,4.2,3.6,4.3,10.9c0.1,7.3,6.5,9.7,14.1,5.3c7.6-4.4,14.9-6.4,16-4.4c1.2,2-4.2,7.3-11.8,11.7C184.3,99.7,183.2,106.4,189.6,110.1z"/></g><g></g><g></g><g></g><g></g><g></g><g></g><g></g><g></g><g></g><g></g><g></g><g></g><g></g><g></g><g></g></g></g>
</svg>